<svg width="178" height="145" viewBox="0 0 178 145" fill="none" xmlns="http://www.w3.org/2000/svg">
<g clip-path="url(#clip0_12_6970)">
<path d="M177.393 93.4215C174.983 94.1607 173.012 92.7922 168.3 93.3604C163.246 93.9713 160.638 96.1693 160.48 96.0287C161.068 95.682 166.614 92.3217 166.264 91.6222C167.177 90.7577 168.3 90.831 169.743 89.2975C173.504 85.2606 171.875 77.4862 172.153 75.4242C168.536 78.7814 161.894 83.721 166.117 90.6218C163.924 92.5463 161.546 94.2447 159.026 95.7064C163.003 91.4511 159.834 83.9486 159.318 80.6784C155.946 85.5249 153.578 91.3763 156.698 96.435C156.609 96.5984 156.649 96.8092 156.767 96.9406C139.575 105.708 126.608 100.315 119.736 100.547C119.052 97.0414 121.385 93.4963 121.203 89.7435C121.08 87.0614 118.643 83.1161 116.576 81.74C106.869 76.2352 100.565 77.9963 90.0223 83.1345C87.5344 71.0421 83.0478 69.5132 79.7316 58.3373C74.2864 40.0498 76.716 37.7281 80.2669 21.4232C81.0446 17.9041 82.3468 13.7481 78.7208 13.8886C73.771 14.0841 70.2339 26.9127 69.2645 28.3988C68.2031 25.2081 68.2384 24.8492 67.6816 24.3436C65.6293 22.4802 63.4804 26.8333 62.6352 29.4711C61.1044 34.2381 62.33 36.8881 61.1044 39.5274C60.2301 38.8386 60.4709 37.2211 59.5046 36.1152C58.5582 35.0323 57.2421 35.4722 56.6209 36.6177C53.9137 41.5818 56.2666 46.5443 54.1054 41.8796C48.1954 29.077 50.6619 13.8886 47.8334 3.08687C45.1492 -7.09473 35.7635 10.4428 37.1225 19.0817C37.5198 21.5195 36.8433 17.8339 33.1391 17.4092C27.4438 16.7723 23.8776 27.8138 28.516 36.7689C21.9618 32.5426 19.5537 47.0391 27.5389 55.6842C21.7225 55.704 20.3605 69.3895 28.9225 76.8768C26.4131 77.3136 23.3622 81.2604 31.3751 87.3867C34.6653 89.9115 33.432 87.9106 30.8613 89.1173C22.787 92.8808 40.4939 109.983 60.227 106.374C48.6479 125.312 31.9963 127.204 2.65665 128.84C-2.30846 129.117 -1.59522 133.85 16.17 135.674C12.1881 138.105 17.4277 142.49 28.5574 140.175C26.1907 143.96 31.3675 146.138 40.8206 141.938C40.7163 150.592 55.3938 138.831 61.6781 132.231C63.6813 130.128 63.5847 131.84 66.7168 132.567C101.989 140.76 103.365 101.101 108.93 98.526C111.43 97.3683 112.469 98.0357 115.595 99.861C117.718 101.112 117.374 100.524 116.075 101.054C112.423 102.538 110.452 104.074 105.26 109.752C108.884 110.34 108.083 111.787 110.234 109.218C115.607 102.82 117.909 102.097 119.075 102.409C119.396 102.494 120.13 103.185 120.058 102.23C124.941 101.393 139.995 107.359 159.13 96.8001C159.071 97.6004 163.2 100.758 168.688 99.5142C174.098 98.2816 179.925 92.6608 177.397 93.4245L177.393 93.4215Z" fill="white"/>
<path d="M159.364 101.533C154.444 99.8686 148.95 101.715 150.084 102.652C157.402 108.74 156.894 108.94 168.662 108.679C170.857 108.654 162.118 102.47 159.364 101.532V101.533Z" fill="white"/>
<path d="M148.861 98.4069C150.894 96.6244 152.963 93.6154 153.552 89.2318C154.293 83.7424 153.271 84.5183 151.072 86.3878C148.102 88.9111 143.763 92.8807 143.723 96.7695C143.677 101.349 145.341 100.535 148.861 98.4069V98.4069Z" fill="white"/>
<path d="M143.77 84.9506C142.571 82.8733 130.197 93.9286 136.679 100.29C143.424 97.5103 143.823 85.0437 143.77 84.9506V84.9506Z" fill="white"/>
<path d="M124.695 99.4348C124.622 100.287 132.572 101.755 135.155 84.2739C135.42 82.4059 129.002 87.4066 126.86 90.5591C124.135 94.5548 124.361 98.9827 124.695 99.4348Z" fill="white"/>
<path d="M152.837 117.896C150.726 114.232 144.591 102.737 139.083 104.054C138.302 114.399 154.213 120.275 152.837 117.896Z" fill="white"/>
<path d="M130.794 110.948C133.497 117.733 141.881 121.791 141.517 120.091C138.127 104.177 126.07 99.1232 130.794 110.948Z" fill="white"/>
</g>
<defs>
<clipPath id="clip0_12_6970">
<rect width="178" height="145" fill="white"/>
</clipPath>
</defs>
</svg>
